# xmcd
# 
# Track frame offsets:
#     150
#     15497
#     35092
#     49322
#     67601
#     85866
#     99369
#     114128
#     128146
#     143966
#     161155
#     170342
#     178257
#     190502
#     198528
#     216447
#     229640
#     242606
#     258173
#     268911
#     281864
#     293226
#     303825
#     316404
#     326694
#     341455
#     353196
# 
# Disc length: 4826
# 
# Revision: 2
# Processed by: cddbd v1.5.2PL0 Copyright (c) Steve Scherf et al.
# Submitted via: BonkEnc v1.0.6
# 
DISCID=8d12d81b
DTITLE=DJ KOST-R'N'B // Df6  - dOUBLE fACE 6 
DYEAR=2005
DGENRE=R&B
TTITLE0=Dj Kost feat. Ll Cool J - Nouvelle Face - Intro
TTITLE1=Snoop Dogg- Let's Get Blown 
TTITLE2=Christina Millan feat. Joe Budden - Whatever U Want 
TTITLE3=Ciara feat. Petey Pablo - Goodies 
TTITLE4=Prélude and 113 - Sorciére Vaudou ( Inédit ) 
TTITLE5=Baby Bash feat. Akon - Baby I'm Back 
TTITLE6=Houston feat. Chingy and Nate Dog - I Like That 
TTITLE7=New Edition - Hot 2 Nite 
TTITLE8=Rupee - Tempted To Touch
TTITLE9=Laskez and Jamc feat. Rohff and Kamelancien - Pump It Up ( Inédit ) 
TTITLE10=Nina Sky - Turnin' Me On 
TTITLE11=Nina Sky - Move Ya Body 
TTITLE12=Destiny's Child - Lose My Breathe 
TTITLE13=Speedy feat. Lumidee - Sientelo 
TTITLE14=La Fouine feat. Zahoq - Basta ( Inédit ) 
TTITLE15=Ashanti - Only U 
TTITLE16=Ll Cool J feat. Aurelius - Hush 
TTITLE17=Akon feat. Booba - Locked Up - Remix 
TTITLE18=Cash - My My My 
TTITLE19=Brian Mc Knight - Brown Man Business 
TTITLE20=Humphrey - Nouvelle Ere ( Inédit ) 
TTITLE21=Dant Thomas - Get It On 
TTITLE22=Nelly feat. Jaheim - My Place 
TTITLE23=Akon - Lonely 
TTITLE24=Diam's - Marine 
TTITLE25=Twem feat. Asto - Sortie Entre Filles ( Inédit ) 
TTITLE26=Jon B - Lately 
EXTD=
EXTT0=
EXTT1=
EXTT2=
EXTT3=
EXTT4=
EXTT5=
EXTT6=
EXTT7=
EXTT8=
EXTT9=
EXTT10=
EXTT11=
EXTT12=
EXTT13=
EXTT14=
EXTT15=
EXTT16=
EXTT17=
EXTT18=
EXTT19=
EXTT20=
EXTT21=
EXTT22=
EXTT23=
EXTT24=
EXTT25=
EXTT26=
PLAYORDER=
